Jump_normalized_pl10_filtered_grf
version=1
nRows=30
nColumns=37
inDegrees=yes
endheader
time		1_ground_force_vx		1_ground_force_vy		1_ground_force_vz		1_ground_force_px		1_ground_force_py		1_ground_force_pz		1_ground_torque_x		1_ground_torque_y		1_ground_torque_z		2_ground_force_vx		2_ground_force_vy		2_ground_force_vz		2_ground_force_px		2_ground_force_py		2_ground_force_pz		2_ground_torque_x		2_ground_torque_y		2_ground_torque_z		3_ground_force_vx		3_ground_force_vy		3_ground_force_vz		3_ground_force_px		3_ground_force_py		3_ground_force_pz		3_ground_torque_x		3_ground_torque_y		3_ground_torque_z		4_ground_force_vx		4_ground_force_vy		4_ground_force_vz		4_ground_force_px		4_ground_force_py		4_ground_force_pz		4_ground_torque_x		4_ground_torque_y		4_ground_torque_z		
0.063667		-0.000000		0.000000		0.000000		0.136890		0.000000		0.232777		0.000000		0.000000		-0.000000		0.000000		0.000000		0.000000		-0.137729		0.000000		0.252797		0.000000		-0.000000		0.000000		26.713091		252.099895		376.076133		0.374430		1.309275		1.917702		-1.560389		-14.725856		-21.967702		-33.531252		470.446616		485.465597		-0.265718		1.308912		1.929248		-1.593851		22.361847		23.075773		
0.065460		-0.000000		0.000000		0.000000		0.136890		0.000000		0.232777		0.000000		0.000000		-0.000000		0.000000		0.000000		0.000000		-0.137729		0.000000		0.252797		0.000000		-0.000000		0.000000		26.622658		246.710670		375.717439		0.374420		1.309287		1.917793		-1.564833		-14.501214		-22.084020		-34.081960		465.665580		488.065604		-0.265710		1.308930		1.929336		-1.626901		22.228510		23.297782		
0.067253		-0.000000		0.000000		0.000000		0.136890		0.000000		0.232777		0.000000		0.000000		-0.000000		0.000000		0.000000		0.000000		-0.137729		0.000000		0.252797		0.000000		-0.000000		0.000000		26.426327		241.161554		374.975395		0.374408		1.309300		1.917886		-1.562705		-14.260920		-22.173961		-34.593350		460.608386		490.437711		-0.265704		1.308949		1.929424		-1.658937		22.088596		23.519104		
0.069045		-0.000000		0.000000		0.000000		0.136890		0.000000		0.232777		0.000000		0.000000		-0.000000		-0.000000		0.000000		0.000000		-0.137729		0.000000		0.252797		0.000000		-0.000000		0.000000		26.131287		235.514343		373.868154		0.374398		1.309316		1.917983		-1.554158		-14.007206		-22.235810		-35.064303		455.305887		492.589578		-0.265700		1.308967		1.929509		-1.689902		21.943168		23.740044		
0.070838		-0.000000		0.000000		0.000000		0.136890		0.000000		0.232777		0.000000		0.000000		-0.000000		-0.000000		0.000000		0.000000		-0.137729		0.000000		0.252797		0.000000		-0.000000		0.000000		25.754484		229.829328		372.393205		0.374387		1.309332		1.918083		-1.539921		-13.742023		-22.266284		-35.506085		449.766806		494.524974		-0.265698		1.308986		1.929593		-1.720369		21.792408		23.961097		
0.072631		-0.000000		0.000000		0.000000		0.136890		0.000000		0.232777		0.000000		0.000000		-0.000000		-0.000000		0.000000		0.000000		-0.137729		0.000000		0.252797		0.000000		-0.000000		0.000000		25.307081		224.168729		370.563136		0.374377		1.309349		1.918184		-1.520452		-13.468076		-22.263494		-35.926443		444.015940		496.250704		-0.265696		1.309004		1.929674		-1.750695		21.636845		24.182274		
0.074424		0.000000		-0.000000		-0.000000		0.136890		0.000000		0.232777		-0.000000		-0.000000		0.000000		-0.000000		0.000000		0.000000		-0.137729		0.000000		0.252797		0.000000		-0.000000		0.000000		24.802878		218.595988		368.375276		0.374370		1.309366		1.918286		-1.496402		-13.188285		-22.224752		-36.325434		438.082113		497.759308		-0.265697		1.309021		1.929751		-1.780875		21.477190		24.402919		
0.076217		0.000000		-0.000000		-0.000000		0.136890		0.000000		0.232777		-0.000000		-0.000000		0.000000		-0.000000		-0.000000		0.000000		-0.137729		0.000000		0.252797		-0.000000		-0.000000		-0.000000		24.261079		213.163918		365.824870		0.374365		1.309384		1.918386		-1.468800		-12.905241		-22.147571		-36.723358		431.976707		499.055715		-0.265699		1.309038		1.929825		-1.811886		21.313139		24.622777		
0.078010		0.000000		-0.000000		-0.000000		0.136890		0.000000		0.232777		-0.000000		-0.000000		0.000000		-0.000000		-0.000000		-0.000000		-0.137729		0.000000		0.252797		-0.000000		0.000000		-0.000000		23.694815		207.911039		362.913295		0.374361		1.309401		1.918486		-1.438414		-12.621416		-22.030960		-37.134130		425.720941		500.146643		-0.265702		1.309053		1.929896		-1.844372		21.144639		24.841207		
0.079803		0.000000		-0.000000		-0.000000		0.136890		0.000000		0.232777		-0.000000		-0.000000		0.000000		-0.000000		-0.000000		-0.000000		-0.137729		0.000000		0.252797		-0.000000		0.000000		-0.000000		23.119937		202.876891		359.616444		0.374360		1.309417		1.918583		-1.406176		-12.339158		-21.872209		-37.570338		419.332319		501.027255		-0.265707		1.309068		1.929964		-1.878958		20.971473		25.057221		
0.081596		0.000000		-0.000000		-0.000000		0.136890		0.000000		0.232777		-0.000000		-0.000000		0.000000		-0.000000		-0.000000		-0.000000		-0.137729		0.000000		0.252797		-0.000000		0.000000		-0.000000		22.557886		198.075956		355.928016		0.374362		1.309434		1.918676		-1.373498		-12.060390		-21.671641		-38.048999		412.832082		501.711531		-0.265711		1.309084		1.930026		-1.916450		20.793451		25.270153		
0.083389		0.000000		-0.000000		-0.000000		0.136890		0.000000		0.232777		-0.000000		-0.000000		0.000000		-0.000000		-0.000000		-0.000000		-0.137729		0.000000		0.252797		-0.000000		0.000000		-0.000000		22.014425		193.511306		351.826691		0.374365		1.309452		1.918765		-1.340836		-11.786220		-21.428758		-38.586113		406.231405		502.212099		-0.265716		1.309099		1.930086		-1.957656		20.609976		25.479558		
0.085182		0.000000		-0.000000		-0.000000		0.136890		0.000000		0.232777		-0.000000		-0.000000		0.000000		0.000000		-0.000000		-0.000000		-0.137729		0.000000		0.252797		-0.000000		0.000000		-0.000000		21.502871		189.173450		347.293134		0.374369		1.309470		1.918851		-1.309170		-11.517542		-21.144419		-39.190883		399.549256		502.545006		-0.265720		1.309115		1.930144		-2.003051		20.420917		25.685077		
0.086975		0.000000		-0.000000		-0.000000		0.136890		0.000000		0.232777		-0.000000		-0.000000		0.000000		0.000000		-0.000000		-0.000000		-0.137729		0.000000		0.252797		-0.000000		0.000000		-0.000000		21.040384		185.041136		342.311504		0.374374		1.309492		1.918932		-1.279746		-11.254816		-20.820522		-39.877309		392.795932		502.736408		-0.265724		1.309132		1.930197		-2.053371		20.225916		25.887003		
0.088768		0.000000		-0.000000		-0.000000		0.136890		0.000000		0.232777		-0.000000		-0.000000		0.000000		0.000000		-0.000000		-0.000000		-0.137729		0.000000		0.252797		-0.000000		0.000000		-0.000000		20.631235		181.083903		336.855944		0.374380		1.309515		1.919008		-1.253017		-10.997945		-20.458596		-40.646966		385.983104		502.807199		-0.265726		1.309150		1.930247		-2.108774		20.024783		26.085678		
0.090561		-0.000000		0.000000		0.000000		0.136890		0.000000		0.232777		0.000000		0.000000		-0.000000		0.000000		-0.000000		-0.000000		-0.137729		0.000000		0.252797		-0.000000		0.000000		-0.000000		20.280812		177.257122		330.928834		0.374386		1.309542		1.919083		-1.229530		-10.746265		-20.062656		-41.491616		379.125756		502.783338		-0.265727		1.309170		1.930292		-2.168878		19.817866		26.281792		
0.092354		-0.000000		0.000000		0.000000		0.136890		0.000000		0.232777		0.000000		0.000000		-0.000000		0.000000		0.000000		-0.000000		-0.137729		0.000000		0.252797		0.000000		0.000000		0.000000		19.995900		173.519050		324.515805		0.374392		1.309573		1.919155		-1.209888		-10.499084		-19.635415		-42.405855		372.229130		502.687972		-0.265727		1.309190		1.930333		-2.233493		19.605011		26.476232		
0.094146		-0.000000		0.000000		0.000000		0.136890		0.000000		0.232777		0.000000		0.000000		-0.000000		0.000000		0.000000		0.000000		-0.137729		0.000000		0.252797		0.000000		-0.000000		0.000000		19.773519		169.822150		317.630181		0.374398		1.309609		1.919226		-1.194090		-10.255283		-19.181171		-43.375877		365.295002		502.546280		-0.265724		1.309212		1.930367		-2.301960		19.386130		26.670087		
0.095939		-0.000000		0.000000		0.000000		0.136890		0.000000		0.232777		0.000000		0.000000		-0.000000		0.000000		0.000000		0.000000		-0.137729		0.000000		0.252797		0.000000		-0.000000		0.000000		19.610813		166.119694		310.291404		0.374404		1.309650		1.919295		-1.182119		-10.013517		-18.704033		-44.375479		358.334776		502.369355		-0.265719		1.309234		1.930394		-2.372949		19.161662		26.863826		
0.097732		-0.000000		0.000000		0.000000		0.136890		0.000000		0.232777		0.000000		0.000000		-0.000000		0.000000		0.000000		0.000000		-0.137729		0.000000		0.252797		0.000000		-0.000000		0.000000		19.502758		162.367771		302.525406		0.374409		1.309694		1.919364		-1.173805		-9.772370		-18.207988		-45.383378		351.347096		502.169645		-0.265713		1.309257		1.930415		-2.445368		18.931323		27.058038		
0.099525		-0.000000		0.000000		0.000000		0.136890		0.000000		0.232777		0.000000		0.000000		-0.000000		-0.000000		0.000000		0.000000		-0.137729		0.000000		0.252797		0.000000		-0.000000		0.000000		19.435900		158.531623		294.383105		0.374414		1.309742		1.919430		-1.168430		-9.530469		-17.697473		-46.375473		344.330129		501.953921		-0.265706		1.309280		1.930427		-2.517898		18.694948		27.252938		
0.101318		-0.000000		0.000000		0.000000		0.136890		0.000000		0.232777		0.000000		0.000000		-0.000000		-0.000000		0.000000		0.000000		-0.137729		0.000000		0.252797		0.000000		-0.000000		0.000000		19.402293		154.575817		285.905764		0.374420		1.309792		1.919495		-1.165602		-9.286215		-17.175925		-47.326765		337.282013		501.719891		-0.265698		1.309303		1.930430		-2.589180		18.452119		27.448309		
0.103111		-0.000000		0.000000		0.000000		0.136890		0.000000		0.232777		0.000000		0.000000		-0.000000		-0.000000		0.000000		0.000000		-0.137729		0.000000		0.252797		0.000000		-0.000000		0.000000		19.392387		150.475772		277.157037		0.374425		1.309843		1.919557		-1.164761		-9.037999		-16.646832		-48.220689		330.194344		501.465158		-0.265691		1.309325		1.930425		-2.658225		18.202296		27.643833		
0.104904		-0.000000		0.000000		0.000000		0.136890		0.000000		0.232777		0.000000		0.000000		-0.000000		-0.000000		0.000000		0.000000		-0.137729		0.000000		0.252797		0.000000		-0.000000		0.000000		19.397048		146.207708		268.187540		0.374432		1.309895		1.919614		-1.165358		-8.784030		-16.112469		-49.042489		323.057670		501.181761		-0.265683		1.309348		1.930413		-2.724146		17.944710		27.838928		
0.106697		0.000000		-0.000000		-0.000000		0.136890		0.000000		0.232777		-0.000000		-0.000000		0.000000		-0.000000		0.000000		0.000000		-0.137729		0.000000		0.252797		0.000000		-0.000000		0.000000		19.407054		141.752346		259.042625		0.374441		1.309945		1.919665		-1.166788		-8.522408		-15.574111		-49.780375		315.868320		500.855449		-0.265679		1.309370		1.930390		-2.786186		17.678923		28.032607		
0.108490		0.000000		-0.000000		-0.000000		0.136890		0.000000		0.232777		-0.000000		-0.000000		0.000000		-0.000000		-0.000000		0.000000		-0.137729		0.000000		0.252797		-0.000000		-0.000000		-0.000000		19.422760		137.085685		249.758640		0.374450		1.309993		1.919708		-1.168984		-8.250675		-15.032040		-50.436230		308.612167		500.479097		-0.265675		1.309393		1.930360		-2.844318		17.403971		28.224183		
0.110283		0.000000		-0.000000		-0.000000		0.136890		0.000000		0.232777		-0.000000		-0.000000		0.000000		-0.000000		-0.000000		-0.000000		-0.137729		0.000000		0.252797		-0.000000		0.000000		-0.000000		19.443469		132.170277		240.344523		0.374461		1.310040		1.919746		-1.171802		-7.965515		-14.484859		-51.010133		301.281847		500.037907		-0.265674		1.309416		1.930323		-2.898427		17.118933		28.412413		
0.112076		0.000000		-0.000000		-0.000000		0.136890		0.000000		0.232777		-0.000000		-0.000000		0.000000		-0.000000		-0.000000		-0.000000		-0.137729		0.000000		0.252797		-0.000000		0.000000		-0.000000		19.468930		126.975535		230.792290		0.374475		1.310082		1.919774		-1.175092		-7.663895		-13.929990		-51.505931		293.881432		499.519745		-0.265675		1.309440		1.930279		-2.948562		16.823799		28.596004		
0.113869		0.000000		-0.000000		-0.000000		0.136890		0.000000		0.232777		-0.000000		-0.000000		0.000000		-0.000000		-0.000000		-0.000000		-0.137729		0.000000		0.252797		-0.000000		0.000000		-0.000000		19.503458		121.444235		221.062912		0.374490		1.310122		1.919795		-1.178978		-7.341256		-13.363166		-51.927446		286.408610		498.913530		-0.265678		1.309465		1.930227		-2.994783		16.517824		28.773536		
0.115662		0.000000		-0.000000		-0.000000		0.136890		0.000000		0.232777		-0.000000		-0.000000		0.000000		0.000000		-0.000000		-0.000000		-0.137729		0.000000		0.252797		-0.000000		0.000000		-0.000000		19.549299		115.524980		211.095783		0.374504		1.310159		1.919808		-1.183441		-6.993440		-12.778932		-52.283410		278.872739		498.207539		-0.265681		1.309492		1.930171		-3.037411		16.201081		28.943403		
